<svg xmlns="http://www.w3.org/2000/svg" version="1.1" xmlns:xlink="http://www.w3.org/1999/xlink" xmlns:svgjs="http://svgjs.dev/svgjs" viewBox="0 0 600 600"><path d="M180.23560920435557 378.53401903082494C136.25654934921235 327.3560099976218 106.54450304387379 157.46072598069472 160.6020948000587 124.08376268316869C214.6596865562436 90.70679938564265 460.6020998863217 127.09423021246556 504.58115974146494 178.2722392456687C548.5602195966081 229.4502482788718 478.53404568710295 397.7748535848614 424.47645393091807 431.15181688238744C370.4188621747332 464.5287801799135 224.2146690594988 429.71202806402806 180.23560920435557 378.53401903082494C136.25654934921235 327.3560099976218 106.54450304387379 157.46072598069472 160.6020948000587 124.08376268316869 " fill="hsl(275, 87%, 37%)"></path><path d="M79.71203265764461 318.0628223519024C35.73297280250139 266.8848133186993 6.020926497162833 96.9895293017722 60.07851825334774 63.61256600424616C114.13611000953264 30.23560270672013 360.07852333961074 66.62303353354304 404.057583194754 117.80104256674616C448.0366430498972 168.9790515999493 378.010469140392 337.30365690593885 323.9528773842071 370.6806202034649C269.89528562802224 404.057583500991 123.69109251278783 369.24083138510554 79.71203265764461 318.0628223519024C35.73297280250139 266.8848133186993 6.020926497162833 96.9895293017722 60.07851825334774 63.61256600424616 " fill-opacity="0.05" fill="none" opacity="1" stroke-opacity="1" stroke-width="5" stroke="hsl(0, 0%, 0%)" transform="matrix(1,0,0,1,75,75)"></path></svg>